<svg width="30" height="30" viewBox="0 0 30 30" fill="none" xmlns="http://www.w3.org/2000/svg">
<path fill-rule="evenodd" clip-rule="evenodd" d="M9.18126 5.02072C13.0486 4.59205 16.9514 4.59205 20.8188 5.02072C22.96 5.26072 24.6875 6.94697 24.9388 9.09572C25.3974 13.0178 25.3974 16.9799 24.9388 20.902C24.8116 21.9461 24.3355 22.9166 23.5877 23.6563C22.8399 24.3959 21.8642 24.8613 20.8188 24.977C16.9515 25.407 13.0485 25.407 9.18126 24.977C8.13582 24.8613 7.1601 24.3959 6.41228 23.6563C5.66447 22.9166 5.1884 21.9461 5.06126 20.902C4.60263 16.9803 4.60263 13.0186 5.06126 9.09697C5.18834 8.05306 5.66423 7.08265 6.4118 6.34303C7.15936 5.6034 8.1348 5.1379 9.18001 5.02197L9.18126 5.02072ZM15 8.75822C15.2486 8.75822 15.4871 8.85699 15.6629 9.03281C15.8387 9.20862 15.9375 9.44708 15.9375 9.69572V14.062H20.3038C20.5524 14.062 20.7909 14.1607 20.9667 14.3366C21.1425 14.5124 21.2413 14.7508 21.2413 14.9995C21.2413 15.2481 21.1425 15.4866 20.9667 15.6624C20.7909 15.8382 20.5524 15.937 20.3038 15.937H15.9375V20.3032C15.9375 20.5519 15.8387 20.7903 15.6629 20.9661C15.4871 21.142 15.2486 21.2407 15 21.2407C14.7514 21.2407 14.5129 21.142 14.3371 20.9661C14.1613 20.7903 14.0625 20.5519 14.0625 20.3032V15.937H9.69626C9.44762 15.937 9.20916 15.8382 9.03334 15.6624C8.85753 15.4866 8.75876 15.2481 8.75876 14.9995C8.75876 14.7508 8.85753 14.5124 9.03334 14.3366C9.20916 14.1607 9.44762 14.062 9.69626 14.062H14.0625V9.69572C14.0625 9.44708 14.1613 9.20862 14.3371 9.03281C14.5129 8.85699 14.7514 8.75822 15 8.75822Z" fill="#697785"/>
</svg>
