<svg width="30" height="30" viewBox="0 0 30 30" fill="none" xmlns="http://www.w3.org/2000/svg">
<path d="M24.8194 6.95552H20.356V6.06177C20.356 5.35065 20.0739 4.66866 19.5716 4.16582C19.0694 3.66298 18.3882 3.38049 17.678 3.38049H12.322C11.6117 3.38049 10.9306 3.66298 10.4283 4.16582C9.9261 4.66866 9.64396 5.35065 9.64396 6.06177V6.95552H5.1806C4.7071 6.95552 4.25299 7.14385 3.91818 7.47908C3.58336 7.8143 3.39526 8.26896 3.39526 8.74304V23.0432C3.39526 23.5172 3.58336 23.9719 3.91818 24.3071C4.25299 24.6424 4.7071 24.8307 5.1806 24.8307H24.8194C25.2929 24.8307 25.747 24.6424 26.0818 24.3071C26.4166 23.9719 26.6047 23.5172 26.6047 23.0432V8.74304C26.6047 8.26896 26.4166 7.8143 26.0818 7.47908C25.747 7.14385 25.2929 6.95552 24.8194 6.95552ZM11.4293 6.06177C11.4293 5.82473 11.5233 5.5974 11.6908 5.42978C11.8582 5.26217 12.0852 5.16801 12.322 5.16801H17.678C17.9147 5.16801 18.1418 5.26217 18.3092 5.42978C18.4766 5.5974 18.5707 5.82473 18.5707 6.06177V6.95552H11.4293V6.06177ZM24.8194 8.74304V13.3917C21.8063 15.0337 18.4304 15.8937 15 15.8931C11.5697 15.8937 8.19384 15.0341 5.1806 13.3928V8.74304H24.8194ZM24.8194 23.0432H5.1806V15.406C8.23792 16.9033 11.5965 17.6813 15 17.6806C18.4035 17.6807 21.7621 16.9023 24.8194 15.4049V23.0432ZM12.322 13.2118C12.322 12.9748 12.416 12.7475 12.5834 12.5798C12.7508 12.4122 12.9779 12.3181 13.2146 12.3181H16.7853C17.0221 12.3181 17.2491 12.4122 17.4165 12.5798C17.5839 12.7475 17.678 12.9748 17.678 13.2118C17.678 13.4489 17.5839 13.6762 17.4165 13.8438C17.2491 14.0114 17.0221 14.1056 16.7853 14.1056H13.2146C12.9779 14.1056 12.7508 14.0114 12.5834 13.8438C12.416 13.6762 12.322 13.4489 12.322 13.2118Z" fill="white"/>
</svg>
