<svg width="34" height="34" viewBox="0 0 34 34" fill="none" xmlns="http://www.w3.org/2000/svg">
<path d="M14.1154 3.99934C10.3654 3.99934 7.38462 6.98453 7.38462 10.7401C7.37804 11.8445 7.64408 12.9334 8.15908 13.91C8.67408 14.8865 9.42207 15.7205 10.3365 16.3378C6.91346 17.814 4.5 21.2287 4.5 25.1845H6.42308C6.42308 20.9475 9.88461 17.4808 14.1154 17.4808C17.8654 17.4808 20.8462 14.4956 20.8462 10.7401C20.8462 6.98453 17.8654 3.99934 14.1154 3.99934ZM14.1154 5.92527C16.8077 5.92527 18.9231 8.04379 18.9231 10.7401C18.9231 13.4364 16.8077 15.5549 14.1154 15.5549C11.4231 15.5549 9.30769 13.4364 9.30769 10.7401C9.30769 8.04379 11.4231 5.92527 14.1154 5.92527ZM21.9038 16.5179V18.5401C21.3269 18.6364 20.75 18.9253 20.2692 19.2142L18.8269 17.7697L17.4808 19.1179L18.9231 20.5623C18.5385 21.0438 18.3462 21.6216 18.25 22.2956H16.0385V24.2216H18.0577C18.1538 24.7993 18.4423 25.3771 18.7308 25.9549L17.2885 27.3993L18.6346 28.7475L20.0769 27.303C20.5577 27.5919 21.1346 27.8808 21.7115 27.9771V29.9993H23.6346V27.9771C24.2115 27.8808 24.7885 27.5919 25.2692 27.303L26.7115 28.7475L28.0577 27.3993L26.6154 25.9549C27 25.4734 27.1923 24.8956 27.2885 24.2216H29.5V22.2956H27.4808C27.3846 21.7179 27.0962 21.1401 26.8077 20.5623L28.25 19.1179L26.9038 17.7697L25.4615 19.2142C24.9808 18.9253 24.4038 18.6364 23.8269 18.5401V16.5179H21.9038ZM22.7692 20.3697C24.4038 20.3697 25.6538 21.6216 25.6538 23.2586C25.6538 24.8956 24.4038 26.1475 22.7692 26.1475C21.1346 26.1475 19.8846 24.8956 19.8846 23.2586C19.8846 21.6216 21.1346 20.3697 22.7692 20.3697ZM22.7692 22.2956C22.647 22.2971 22.5265 22.3254 22.4163 22.3785C22.3019 22.4329 22.1978 22.5069 22.1087 22.597C22.0186 22.6863 21.9448 22.7906 21.8904 22.9052C21.8374 23.0156 21.8092 23.1362 21.8077 23.2586C21.8077 23.6197 22.0779 23.9808 22.4163 24.1388C22.5265 24.1918 22.647 24.2201 22.7692 24.2216C23.25 24.2216 23.7308 23.7401 23.7308 23.2586C23.7308 22.7771 23.25 22.2956 22.7692 22.2956Z" fill="#697785"/>
</svg>
