<svg width="32" height="24" viewBox="0 0 32 24" fill="none" xmlns="http://www.w3.org/2000/svg">
<path d="M28 16.4438C27.9986 14.0685 27.3348 11.7443 26.0886 9.75138L24.8509 11.0358C25.79 12.6716 26.2858 14.54 26.2857 16.4438H28ZM26.2857 7.03405L25.0737 5.77717L17.7306 13.3923C17.208 13.0657 16.6101 12.8916 16 12.8883C15.3219 12.8883 14.659 13.0968 14.0952 13.4875C13.5314 13.8782 13.0919 14.4335 12.8324 15.0832C12.5729 15.7329 12.505 16.4478 12.6373 17.1375C12.7696 17.8272 13.0961 18.4607 13.5756 18.958C14.0551 19.4552 14.666 19.7938 15.3311 19.931C15.9962 20.0682 16.6856 19.9978 17.3121 19.7287C17.9386 19.4596 18.474 19.0039 18.8508 18.4192C19.2275 17.8345 19.4286 17.147 19.4286 16.4438C19.4255 15.8108 19.2576 15.1905 18.9426 14.6483L26.2857 7.03405ZM16 18.2216C15.661 18.2216 15.3295 18.1173 15.0476 17.922C14.7657 17.7266 14.546 17.449 14.4162 17.1241C14.2865 16.7993 14.2525 16.4418 14.3187 16.097C14.3848 15.7521 14.5481 15.4354 14.7878 15.1867C15.0276 14.9381 15.333 14.7688 15.6656 14.7002C15.9981 14.6316 16.3428 14.6668 16.656 14.8014C16.9693 14.9359 17.237 15.1638 17.4254 15.4561C17.6138 15.7485 17.7143 16.0922 17.7143 16.4438C17.7138 16.9152 17.5331 17.3671 17.2117 17.7004C16.8903 18.0337 16.4545 18.2211 16 18.2216ZM16 5.77717C17.8354 5.77804 19.6366 6.29208 21.214 7.26516L22.4603 5.97361C20.6491 4.76577 18.5576 4.08647 16.4056 4.00719C14.2536 3.92791 12.1209 4.45158 10.2316 5.5231C8.34241 6.59462 6.76659 8.17438 5.66997 10.0962C4.57335 12.018 3.99647 14.2107 4.00002 16.4438H5.7143C5.71748 13.6159 6.80217 10.9047 8.73042 8.90499C10.6587 6.90532 13.273 5.78046 16 5.77717Z" fill="#697785"/>
</svg>
