<svg width="30" height="30" viewBox="0 0 30 30" fill="none" xmlns="http://www.w3.org/2000/svg">
<path d="M24.5219 20.4803C25.0785 21.3422 25.7483 22.1251 26.5135 22.808C26.5981 22.8825 26.666 22.9741 26.7125 23.0769C26.759 23.1796 26.7831 23.2911 26.7833 23.4039V24.4843C26.7833 24.695 26.6997 24.8971 26.5509 25.0461C26.4021 25.1951 26.2003 25.2788 25.9898 25.2788H3.93094C3.72049 25.2788 3.51866 25.1951 3.36986 25.0461C3.22105 24.8971 3.13745 24.695 3.13745 24.4843V23.4039C3.13759 23.2911 3.16173 23.1796 3.20824 23.0769C3.25476 22.9741 3.3226 22.8825 3.40724 22.808C4.1612 22.123 4.82034 21.3402 5.36714 20.4803C5.97478 19.2906 6.33897 17.9915 6.43835 16.659V12.7344C6.43337 10.661 7.17777 8.65578 8.53412 7.08898C9.89046 5.52217 11.7672 4.49956 13.8178 4.20994V3.1692C13.8178 2.88792 13.9294 2.61815 14.128 2.41925C14.3267 2.22035 14.5961 2.10861 14.8771 2.10861C15.158 2.10861 15.4274 2.22035 15.6261 2.41925C15.8248 2.61815 15.9364 2.88792 15.9364 3.1692V4.17021C16.8521 4.28818 17.7422 4.5566 18.5707 4.96466V5.46517C18.5844 5.93513 18.6536 6.40182 18.777 6.85546C17.6578 6.11047 16.344 5.71253 15 5.71145C14.0817 5.71353 13.1728 5.89695 12.3254 6.25121C11.478 6.60547 10.7087 7.12361 10.0616 7.77596C9.41443 8.42831 8.90218 9.20206 8.55413 10.0529C8.20608 10.9037 8.02908 11.815 8.03325 12.7344V16.6669C7.936 18.2924 7.48941 19.8777 6.724 21.3145C6.17618 22.1836 5.52616 22.9838 4.7879 23.6978H25.109C24.3708 22.9838 23.7208 22.1836 23.1729 21.3145C22.4075 19.8777 21.9609 18.2924 21.8637 16.6669V12.7423C21.864 12.0312 21.757 11.3241 21.5463 10.645C22.0989 10.962 22.6992 11.1873 23.3237 11.3123C23.405 11.7821 23.4474 12.2577 23.4507 12.7344V16.659C23.55 17.9915 23.9142 19.2906 24.5219 20.4803Z" fill="#697785"/>
<path d="M16.3542 27.4C15.9796 27.7314 15.4999 27.9196 15.0001 27.9311C14.4866 27.9385 13.9878 27.759 13.5966 27.4258C13.2055 27.0926 12.9485 26.6285 12.8735 26.1198H17.0473C16.9744 26.615 16.7289 27.0685 16.3542 27.4Z" fill="#697785"/>
<path d="M24.5219 9.4382C26.713 9.4382 28.4893 7.65976 28.4893 5.46594C28.4893 3.27212 26.713 1.49368 24.5219 1.49368C22.3307 1.49368 20.5544 3.27212 20.5544 5.46594C20.5544 7.65976 22.3307 9.4382 24.5219 9.4382Z" fill="#FF0000"/>
</svg>
