<svg width="30" height="30" viewBox="0 0 30 30" fill="none" xmlns="http://www.w3.org/2000/svg">
<path d="M7.85873 3.08258C7.22739 3.08258 6.62191 3.33368 6.17549 3.78065C5.72907 4.22761 5.47827 4.83383 5.47827 5.46594V24.5328C5.47827 25.1649 5.72907 25.7711 6.17549 26.2181C6.62191 26.665 7.22739 26.9161 7.85873 26.9161H22.1414C22.7728 26.9161 23.3783 26.665 23.8247 26.2181C24.2711 25.7711 24.5219 25.1649 24.5219 24.5328V10.2326L17.3805 3.08258H7.85873ZM7.26361 4.8701H16.1903V11.4243H22.7366V25.1286H7.26361V4.8701ZM10.2392 14.9994V16.7869H19.761V14.9994H10.2392ZM10.2392 20.3619V22.1494H16.1903V20.3619H10.2392Z" fill="#697785"/>
</svg>
