<svg width="28" height="30" viewBox="0 0 28 30" fill="none" xmlns="http://www.w3.org/2000/svg">
<path d="M23.2154 21.637C22.7137 20.4582 21.9856 19.3875 21.0718 18.4844C20.1607 17.5787 19.0814 16.8567 17.8936 16.358C17.883 16.3528 17.8723 16.3501 17.8617 16.3448C19.5186 15.1577 20.5957 13.2239 20.5957 11.0421C20.5957 7.42775 17.6436 4.49936 14 4.49936C10.3564 4.49936 7.4043 7.42775 7.4043 11.0421C7.4043 13.2239 8.48142 15.1576 10.1383 16.3475C10.1277 16.3528 10.117 16.3554 10.1064 16.3607C8.91493 16.8593 7.84579 17.5742 6.92824 18.487C6.01524 19.3908 5.2873 20.4614 4.78464 21.6397C4.29082 22.7932 4.02449 24.03 4.00007 25.283C3.99936 25.3112 4.00434 25.3392 4.01471 25.3654C4.02508 25.3916 4.04064 25.4155 4.06047 25.4357C4.0803 25.4559 4.104 25.4719 4.13016 25.4828C4.15633 25.4937 4.18444 25.4994 4.21283 25.4994H5.80857C5.92559 25.4994 6.01867 25.407 6.02133 25.2936C6.07452 23.2569 6.89898 21.3495 8.35642 19.9038C9.86439 18.4079 11.867 17.5848 14 17.5848C16.133 17.5848 18.1356 18.4079 19.6436 19.9038C21.101 21.3495 21.9255 23.2569 21.9787 25.2936C21.9813 25.4097 22.0744 25.4994 22.1914 25.4994H23.7872C23.8156 25.4994 23.8437 25.4937 23.8698 25.4828C23.896 25.4719 23.9197 25.4559 23.9395 25.4357C23.9594 25.4155 23.9749 25.3916 23.9853 25.3654C23.9957 25.3392 24.0006 25.3112 23.9999 25.283C23.9733 24.022 23.71 22.7952 23.2154 21.637ZM14 15.5798C12.7793 15.5798 11.6303 15.1075 10.766 14.2501C9.90162 13.3927 9.42556 12.253 9.42556 11.0421C9.42556 9.83114 9.90162 8.69144 10.766 7.83403C11.6303 6.97662 12.7793 6.50438 14 6.50438C15.2207 6.50438 16.3697 6.97662 17.234 7.83403C18.0984 8.69144 18.5744 9.83114 18.5744 11.0421C18.5744 12.253 18.0984 13.3927 17.234 14.2501C16.3697 15.1075 15.2207 15.5798 14 15.5798Z" fill="#697785"/>
</svg>
