<svg width="30" height="30" viewBox="0 0 30 30" fill="none" xmlns="http://www.w3.org/2000/svg">
<path d="M17.4745 2.48672C17.6635 2.48673 17.8477 2.54679 18.0004 2.65826C18.1531 2.76973 18.2665 2.92685 18.3244 3.10699L19.3063 6.16186C19.7187 6.36385 20.1133 6.59086 20.49 6.84648L23.625 6.1708C23.8099 6.13128 24.0025 6.15153 24.1751 6.22863C24.3477 6.30572 24.4914 6.43569 24.5856 6.5998L27.06 10.888C27.1545 11.0521 27.1946 11.2419 27.1743 11.4301C27.1541 11.6184 27.0747 11.7954 26.9476 11.9355L24.7962 14.3129C24.8276 14.7688 24.8276 15.2263 24.7962 15.6822L26.9476 18.0631C27.0747 18.2033 27.1541 18.3803 27.1743 18.5685C27.1946 18.7568 27.1545 18.9466 27.06 19.1106L24.5856 23.4007C24.4912 23.5644 24.3474 23.694 24.1748 23.7708C24.0022 23.8476 23.8097 23.8676 23.625 23.8279L20.49 23.1522C20.1151 23.406 19.7187 23.6348 19.3081 23.8368L18.3244 26.8917C18.2665 27.0718 18.1531 27.2289 18.0004 27.3404C17.8477 27.4519 17.6635 27.5119 17.4745 27.5119H12.5256C12.3366 27.5119 12.1525 27.4519 11.9998 27.3404C11.847 27.2289 11.7336 27.0718 11.6758 26.8917L10.6956 23.8386C10.2843 23.6372 9.88758 23.4073 9.50836 23.1504L6.37509 23.8279C6.19024 23.8674 5.99764 23.8471 5.82503 23.77C5.65241 23.6929 5.50869 23.563 5.41457 23.3989L2.94009 19.1106C2.8456 18.9466 2.80558 18.7568 2.82579 18.5685C2.84601 18.3803 2.92542 18.2033 3.05257 18.0631L5.2039 15.6822C5.17274 15.2275 5.17274 14.7712 5.2039 14.3165L3.05257 11.9355C2.92542 11.7954 2.84601 11.6184 2.82579 11.4301C2.80558 11.2419 2.8456 11.0521 2.94009 10.888L5.41457 6.59801C5.50895 6.43423 5.65278 6.30463 5.82538 6.22787C5.99797 6.1511 6.19043 6.13112 6.37509 6.1708L9.50836 6.84826C9.88685 6.59265 10.2832 6.36206 10.6956 6.16007L11.6775 3.10699C11.7352 2.92743 11.8481 2.77072 12.0001 2.65931C12.1521 2.5479 12.3354 2.48749 12.5238 2.48672H17.4728H17.4745ZM16.8211 4.27424H13.179L12.1649 7.43278L11.4812 7.76705C11.145 7.93174 10.8205 8.11928 10.5099 8.32833L9.87793 8.75733L6.63575 8.05662L4.8147 11.217L7.03745 13.6801L6.98389 14.4381C6.95824 14.8118 6.95824 15.1869 6.98389 15.5606L7.03745 16.3185L4.81113 18.7817L6.63396 21.942L9.87614 21.2431L10.5082 21.6703C10.8187 21.8794 11.1432 22.0669 11.4794 22.2316L12.1632 22.5659L13.179 25.7244H16.8247L17.8423 22.5641L18.5243 22.2316C18.8601 22.0673 19.184 21.8798 19.4938 21.6703L20.124 21.2431L23.368 21.942L25.189 18.7817L22.9645 16.3185L23.018 15.5606C23.0438 15.1863 23.0438 14.8106 23.018 14.4363L22.9645 13.6784L25.1908 11.217L23.368 8.05662L20.124 8.75376L19.4938 8.32833C19.1841 8.11886 18.8601 7.9313 18.5243 7.76705L17.8423 7.43457L16.8229 4.27424H16.8211ZM15.0001 9.63679C16.4206 9.63679 17.7829 10.2018 18.7873 11.2074C19.7918 12.2131 20.3561 13.5771 20.3561 14.9993C20.3561 16.4216 19.7918 17.7856 18.7873 18.7912C17.7829 19.7969 16.4206 20.3619 15.0001 20.3619C13.5796 20.3619 12.2172 19.7969 11.2128 18.7912C10.2083 17.7856 9.64405 16.4216 9.64405 14.9993C9.64405 13.5771 10.2083 12.2131 11.2128 11.2074C12.2172 10.2018 13.5796 9.63679 15.0001 9.63679ZM15.0001 11.4243C14.0531 11.4243 13.1448 11.801 12.4752 12.4714C11.8056 13.1419 11.4294 14.0512 11.4294 14.9993C11.4294 15.9475 11.8056 16.8568 12.4752 17.5273C13.1448 18.1977 14.0531 18.5744 15.0001 18.5744C15.9471 18.5744 16.8553 18.1977 17.5249 17.5273C18.1946 16.8568 18.5707 15.9475 18.5707 14.9993C18.5707 14.0512 18.1946 13.1419 17.5249 12.4714C16.8553 11.801 15.9471 11.4243 15.0001 11.4243Z" fill="#697785"/>
</svg>
