<svg width="30" height="30" viewBox="0 0 30 30" fill="none" xmlns="http://www.w3.org/2000/svg">
<path d="M20.25 18.9368H22.2188V20.2493H18.9375V16.3118H20.25V18.9368ZM17.625 9.74934H7.125V8.43684H17.625V9.74934ZM19.5938 13.6868C20.4072 13.6868 21.1729 13.8407 21.8906 14.1483C22.6084 14.4559 23.2339 14.8797 23.7671 15.4198C24.3003 15.9598 24.7207 16.5853 25.0283 17.2962C25.3359 18.0072 25.4932 18.7728 25.5 19.5931C25.5 20.4066 25.3462 21.1722 25.0386 21.89C24.731 22.6077 24.3071 23.2332 23.7671 23.7664C23.2271 24.2996 22.6016 24.72 21.8906 25.0277C21.1797 25.3353 20.4141 25.4925 19.5938 25.4993C18.7803 25.4993 18.0146 25.3455 17.2969 25.0379C16.5791 24.7303 15.9536 24.3065 15.4204 23.7664C14.8872 23.2264 14.4668 22.6009 14.1592 21.89C13.8516 21.179 13.6943 20.4134 13.6875 19.5931C13.6875 18.7796 13.8413 18.014 14.1489 17.2962C14.4565 16.5784 14.8804 15.953 15.4204 15.4198C15.9604 14.8866 16.5859 14.4661 17.2969 14.1585C18.0078 13.8509 18.7734 13.6937 19.5938 13.6868ZM19.5938 24.1868C20.2295 24.1868 20.8242 24.0672 21.3779 23.828C21.9316 23.5887 22.417 23.2606 22.834 22.8436C23.251 22.4266 23.5791 21.9412 23.8184 21.3875C24.0576 20.8338 24.1807 20.2357 24.1875 19.5931C24.1875 18.9574 24.0679 18.3626 23.8286 17.8089C23.5894 17.2552 23.2612 16.7699 22.8442 16.3529C22.4272 15.9359 21.9419 15.6077 21.3882 15.3685C20.8345 15.1292 20.2363 15.0062 19.5938 14.9993C18.958 14.9993 18.3633 15.119 17.8096 15.3582C17.2559 15.5975 16.7705 15.9256 16.3535 16.3426C15.9365 16.7596 15.6084 17.2449 15.3691 17.7987C15.1299 18.3524 15.0068 18.9505 15 19.5931C15 20.2288 15.1196 20.8236 15.3589 21.3773C15.5981 21.931 15.9263 22.4163 16.3433 22.8333C16.7603 23.2503 17.2456 23.5784 17.7993 23.8177C18.353 24.057 18.9512 24.18 19.5938 24.1868ZM16.4561 12.3743C15.7109 12.7025 15.0273 13.14 14.4053 13.6868H7.125V12.3743H16.4561ZM12.4468 16.3118C12.3511 16.5238 12.2656 16.7391 12.1904 16.9578C12.1152 17.1766 12.0435 17.3988 11.9751 17.6243H7.125V16.3118H12.4468ZM7.125 20.2493H11.7495C11.77 20.4681 11.7974 20.6868 11.8315 20.9056C11.8657 21.1243 11.9136 21.3431 11.9751 21.5618H7.125V20.2493ZM13.2158 24.1868C13.5576 24.6722 13.9541 25.1097 14.4053 25.4993H4.5V4.49934H20.25V11.7489L19.9219 11.7283C19.8125 11.7215 19.7031 11.7181 19.5938 11.7181C19.4844 11.7181 19.375 11.7215 19.2656 11.7283C19.1562 11.7352 19.0469 11.742 18.9375 11.7489V5.81184H5.8125V24.1868H13.2158Z" fill="#697785" stroke="#697785" stroke-width="0.3"/>
</svg>
